<?xml version='1.0'?>
<!--
Bitly Generated QR Code
v4
33x33
-->
<svg width='656' height='656'
xmlns='http://www.w3.org/2000/svg'
xmlns:xlink='http://www.w3.org/1999/xlink'>
	<g id='background' style='fill:#ffffff' >
<rect x="0" y="0" width="656" height="656" />
</g>
<g id='pips' style='fill:#198639' >
<path d="M66.4,256L77.6,256A2.4,2.4,0,0,0,80,253.6L80,240L80,226.4A2.4,2.4,0,0,1,82.4,224L96,224L109.6,224A2.4,2.4,0,0,1,112,226.4L112,240L112,253.6A2.4,2.4,0,0,1,109.6,256L98.4,256A2.4,2.4,0,0,0,96,258.4L96,272L96,285.6A2.4,2.4,0,0,1,93.6,288L80,288L66.4,288A2.4,2.4,0,0,1,64,285.6L64,272L64,258.4A2.4,2.4,0,0,1,66.4,256M66.4,304L80,304L96,304L112,304L128,304L141.6,304A2.4,2.4,0,0,0,144,301.6L144,290.4A2.4,2.4,0,0,1,146.4,288L160,288L173.6,288A2.4,2.4,0,0,1,176,290.4L176,301.6A2.4,2.4,0,0,1,173.6,304L162.4,304A2.4,2.4,0,0,0,160,306.4L160,317.6A2.4,2.4,0,0,1,157.6,320L146.4,320A2.4,2.4,0,0,0,144,322.4L144,333.6A2.4,2.4,0,0,1,141.6,336L130.4,336A2.4,2.4,0,0,1,128,333.6L128,322.4A2.4,2.4,0,0,0,125.6,320L112,320L98.4,320A2.4,2.4,0,0,0,96,322.4L96,336L96,349.6A2.4,2.4,0,0,1,93.6,352L82.4,352A2.4,2.4,0,0,1,80,349.6L80,336L80,322.4A2.4,2.4,0,0,0,77.6,320L66.4,320A2.4,2.4,0,0,1,64,317.6L64,306.4A2.4,2.4,0,0,1,66.4,304M66.4,352L77.6,352A2.4,2.4,0,0,1,80,354.4L80,365.6A2.4,2.4,0,0,1,77.6,368L66.4,368A2.4,2.4,0,0,1,64,365.6L64,354.4A2.4,2.4,0,0,1,66.4,352M66.4,384L77.6,384A2.4,2.4,0,0,0,80,381.6L80,370.4A2.4,2.4,0,0,1,82.4,368L96,368L109.6,368A2.4,2.4,0,0,1,112,370.4L112,384L112,397.6A2.4,2.4,0,0,1,109.6,400L96,400L82.4,400A2.4,2.4,0,0,0,80,402.4L80,416L80,432L80,448L80,461.6A2.4,2.4,0,0,1,77.6,464L66.4,464A2.4,2.4,0,0,1,64,461.6L64,448L64,432L64,416L64,400L64,386.4A2.4,2.4,0,0,1,66.4,384M98.4,192L112,192L128,192L141.6,192A2.4,2.4,0,0,1,144,194.4L144,205.6A2.4,2.4,0,0,0,146.4,208L157.6,208A2.4,2.4,0,0,1,160,210.4L160,221.6A2.4,2.4,0,0,1,157.6,224L144,224L130.4,224A2.4,2.4,0,0,1,128,221.6L128,210.4A2.4,2.4,0,0,0,125.6,208L112,208L98.4,208A2.4,2.4,0,0,1,96,205.6L96,194.4A2.4,2.4,0,0,1,98.4,192M98.4,416L109.6,416A2.4,2.4,0,0,1,112,418.4L112,432L112,445.6A2.4,2.4,0,0,1,109.6,448L98.4,448A2.4,2.4,0,0,1,96,445.6L96,432L96,418.4A2.4,2.4,0,0,1,98.4,416M114.4,272L125.6,272A2.4,2.4,0,0,1,128,274.4L128,285.6A2.4,2.4,0,0,1,125.6,288L114.4,288A2.4,2.4,0,0,1,112,285.6L112,274.4A2.4,2.4,0,0,1,114.4,272M114.4,352L128,352L141.6,352A2.4,2.4,0,0,1,144,354.4L144,365.6A2.4,2.4,0,0,1,141.6,368L128,368L114.4,368A2.4,2.4,0,0,1,112,365.6L112,354.4A2.4,2.4,0,0,1,114.4,352M114.4,400L125.6,400A2.4,2.4,0,0,1,128,402.4L128,413.6A2.4,2.4,0,0,1,125.6,416L114.4,416A2.4,2.4,0,0,1,112,413.6L112,402.4A2.4,2.4,0,0,1,114.4,400M130.4,240L141.6,240A2.4,2.4,0,0,1,144,242.4L144,253.6A2.4,2.4,0,0,1,141.6,256L130.4,256A2.4,2.4,0,0,1,128,253.6L128,242.4A2.4,2.4,0,0,1,130.4,240M130.4,384L144,384L160,384L176,384L189.6,384A2.4,2.4,0,0,1,192,386.4L192,397.6A2.4,2.4,0,0,1,189.6,400L176,400L162.4,400A2.4,2.4,0,0,0,160,402.4L160,413.6A2.4,2.4,0,0,0,162.4,416L173.6,416A2.4,2.4,0,0,1,176,418.4L176,429.6A2.4,2.4,0,0,1,173.6,432L162.4,432A2.4,2.4,0,0,0,160,434.4L160,445.6A2.4,2.4,0,0,1,157.6,448L144,448L130.4,448A2.4,2.4,0,0,1,128,445.6L128,434.4A2.4,2.4,0,0,1,130.4,432L141.6,432A2.4,2.4,0,0,0,144,429.6L144,416L144,402.4A2.4,2.4,0,0,0,141.6,400L130.4,400A2.4,2.4,0,0,1,128,397.6L128,386.4A2.4,2.4,0,0,1,130.4,384M146.4,256L160,256L173.6,256A2.4,2.4,0,0,1,176,258.4L176,269.6A2.4,2.4,0,0,1,173.6,272L160,272L146.4,272A2.4,2.4,0,0,1,144,269.6L144,258.4A2.4,2.4,0,0,1,146.4,256M146.4,336L157.6,336A2.4,2.4,0,0,1,160,338.4L160,349.6A2.4,2.4,0,0,1,157.6,352L146.4,352A2.4,2.4,0,0,1,144,349.6L144,338.4A2.4,2.4,0,0,1,146.4,336M162.4,192L173.6,192A2.4,2.4,0,0,1,176,194.4L176,205.6A2.4,2.4,0,0,1,173.6,208L162.4,208A2.4,2.4,0,0,1,160,205.6L160,194.4A2.4,2.4,0,0,1,162.4,192M162.4,224L173.6,224A2.4,2.4,0,0,1,176,226.4L176,237.6A2.4,2.4,0,0,1,173.6,240L162.4,240A2.4,2.4,0,0,1,160,237.6L160,226.4A2.4,2.4,0,0,1,162.4,224M162.4,320L173.6,320A2.4,2.4,0,0,1,176,322.4L176,333.6A2.4,2.4,0,0,1,173.6,336L162.4,336A2.4,2.4,0,0,1,160,333.6L160,322.4A2.4,2.4,0,0,1,162.4,320M162.4,352L173.6,352A2.4,2.4,0,0,0,176,349.6L176,338.4A2.4,2.4,0,0,1,178.4,336L189.6,336A2.4,2.4,0,0,1,192,338.4L192,352L192,365.6A2.4,2.4,0,0,1,189.6,368L176,368L162.4,368A2.4,2.4,0,0,1,160,365.6L160,354.4A2.4,2.4,0,0,1,162.4,352M162.4,448L173.6,448A2.4,2.4,0,0,1,176,450.4L176,461.6A2.4,2.4,0,0,1,173.6,464L162.4,464A2.4,2.4,0,0,1,160,461.6L160,450.4A2.4,2.4,0,0,1,162.4,448M178.4,240L192,240L205.6,240A2.4,2.4,0,0,1,208,242.4L208,253.6A2.4,2.4,0,0,0,210.4,256L221.6,256A2.4,2.4,0,0,1,224,258.4L224,269.6A2.4,2.4,0,0,0,226.4,272L237.6,272A2.4,2.4,0,0,0,240,269.6L240,258.4A2.4,2.4,0,0,1,242.4,256L253.6,256A2.4,2.4,0,0,1,256,258.4L256,269.6A2.4,2.4,0,0,0,258.4,272L272,272L285.6,272A2.4,2.4,0,0,1,288,274.4L288,285.6A2.4,2.4,0,0,0,290.4,288L304,288L317.6,288A2.4,2.4,0,0,0,320,285.6L320,274.4A2.4,2.4,0,0,1,322.4,272L333.6,272A2.4,2.4,0,0,1,336,274.4L336,288L336,301.6A2.4,2.4,0,0,0,338.4,304L349.6,304A2.4,2.4,0,0,1,352,306.4L352,317.6A2.4,2.4,0,0,1,349.6,320L336,320L320,320L304,320L288,320L274.4,320A2.4,2.4,0,0,0,272,322.4L272,336L272,349.6A2.4,2.4,0,0,0,274.4,352L285.6,352A2.4,2.4,0,0,0,288,349.6L288,338.4A2.4,2.4,0,0,1,290.4,336L301.6,336A2.4,2.4,0,0,1,304,338.4L304,349.6A2.4,2.4,0,0,0,306.4,352L317.6,352A2.4,2.4,0,0,0,320,349.6L320,338.4A2.4,2.4,0,0,1,322.4,336L333.6,336A2.4,2.4,0,0,1,336,338.4L336,349.6A2.4,2.4,0,0,0,338.4,352L349.6,352A2.4,2.4,0,0,1,352,354.4L352,368L352,381.6A2.4,2.4,0,0,0,354.4,384L365.6,384A2.4,2.4,0,0,0,368,381.6L368,370.4A2.4,2.4,0,0,1,370.4,368L381.6,368A2.4,2.4,0,0,0,384,365.6L384,354.4A2.4,2.4,0,0,0,381.6,352L370.4,352A2.4,2.4,0,0,1,368,349.6L368,338.4A2.4,2.4,0,0,1,370.4,336L384,336L400,336L413.6,336A2.4,2.4,0,0,1,416,338.4L416,349.6A2.4,2.4,0,0,1,413.6,352L402.4,352A2.4,2.4,0,0,0,400,354.4L400,365.6A2.4,2.4,0,0,0,402.4,368L413.6,368A2.4,2.4,0,0,1,416,370.4L416,381.6A2.4,2.4,0,0,1,413.6,384L400,384L386.4,384A2.4,2.4,0,0,0,384,386.4L384,397.6A2.4,2.4,0,0,1,381.6,400L370.4,400A2.4,2.4,0,0,0,368,402.4L368,416L368,432L368,445.6A2.4,2.4,0,0,1,365.6,448L354.4,448A2.4,2.4,0,0,0,352,450.4L352,464L352,477.6A2.4,2.4,0,0,1,349.6,480L336,480L320,480L306.4,480A2.4,2.4,0,0,1,304,477.6L304,466.4A2.4,2.4,0,0,0,301.6,464L290.4,464A2.4,2.4,0,0,1,288,461.6L288,450.4A2.4,2.4,0,0,1,290.4,448L304,448L317.6,448A2.4,2.4,0,0,1,320,450.4L320,461.6A2.4,2.4,0,0,0,322.4,464L333.6,464A2.4,2.4,0,0,0,336,461.6L336,450.4A2.4,2.4,0,0,0,333.6,448L322.4,448A2.4,2.4,0,0,1,320,445.6L320,434.4A2.4,2.4,0,0,0,317.6,432L304,432L290.4,432A2.4,2.4,0,0,1,288,429.6L288,418.4A2.4,2.4,0,0,0,285.6,416L274.4,416A2.4,2.4,0,0,1,272,413.6L272,402.4A2.4,2.4,0,0,0,269.6,400L258.4,400A2.4,2.4,0,0,1,256,397.6L256,386.4A2.4,2.4,0,0,0,253.6,384L240,384L226.4,384A2.4,2.4,0,0,1,224,381.6L224,370.4A2.4,2.4,0,0,1,226.4,368L237.6,368A2.4,2.4,0,0,0,240,365.6L240,354.4A2.4,2.4,0,0,1,242.4,352L253.6,352A2.4,2.4,0,0,0,256,349.6L256,338.4A2.4,2.4,0,0,0,253.6,336L242.4,336A2.4,2.4,0,0,1,240,333.6L240,322.4A2.4,2.4,0,0,1,242.4,320L253.6,320A2.4,2.4,0,0,0,256,317.6L256,306.4A2.4,2.4,0,0,1,258.4,304L269.6,304A2.4,2.4,0,0,0,272,301.6L272,290.4A2.4,2.4,0,0,0,269.6,288L258.4,288A2.4,2.4,0,0,0,256,290.4L256,301.6A2.4,2.4,0,0,1,253.6,304L242.4,304A2.4,2.4,0,0,1,240,301.6L240,290.4A2.4,2.4,0,0,0,237.6,288L224,288L210.4,288A2.4,2.4,0,0,0,208,290.4L208,301.6A2.4,2.4,0,0,1,205.6,304L194.4,304A2.4,2.4,0,0,1,192,301.6L192,288L192,272L192,258.4A2.4,2.4,0,0,0,189.6,256L178.4,256A2.4,2.4,0,0,1,176,253.6L176,242.4A2.4,2.4,0,0,1,178.4,240M178.4,304L189.6,304A2.4,2.4,0,0,1,192,306.4L192,317.6A2.4,2.4,0,0,1,189.6,320L178.4,320A2.4,2.4,0,0,1,176,317.6L176,306.4A2.4,2.4,0,0,1,178.4,304M194.4,64L205.6,64A2.4,2.4,0,0,1,208,66.4L208,77.6A2.4,2.4,0,0,0,210.4,80L221.6,80A2.4,2.4,0,0,1,224,82.4L224,96L224,112L224,125.6A2.4,2.4,0,0,0,226.4,128L237.6,128A2.4,2.4,0,0,1,240,130.4L240,141.6A2.4,2.4,0,0,0,242.4,144L256,144L272,144L285.6,144A2.4,2.4,0,0,1,288,146.4L288,157.6A2.4,2.4,0,0,1,285.6,160L274.4,160A2.4,2.4,0,0,0,272,162.4L272,173.6A2.4,2.4,0,0,1,269.6,176L258.4,176A2.4,2.4,0,0,1,256,173.6L256,162.4A2.4,2.4,0,0,0,253.6,160L242.4,160A2.4,2.4,0,0,0,240,162.4L240,173.6A2.4,2.4,0,0,1,237.6,176L226.4,176A2.4,2.4,0,0,1,224,173.6L224,162.4A2.4,2.4,0,0,0,221.6,160L210.4,160A2.4,2.4,0,0,0,208,162.4L208,173.6A2.4,2.4,0,0,0,210.4,176L221.6,176A2.4,2.4,0,0,1,224,178.4L224,192L224,205.6A2.4,2.4,0,0,1,221.6,208L208,208L194.4,208A2.4,2.4,0,0,1,192,205.6L192,192L192,176L192,160L192,146.4A2.4,2.4,0,0,1,194.4,144L205.6,144A2.4,2.4,0,0,0,208,141.6L208,128L208,114.4A2.4,2.4,0,0,0,205.6,112L194.4,112A2.4,2.4,0,0,1,192,109.6L192,96L192,80L192,66.4A2.4,2.4,0,0,1,194.4,64M194.4,320L205.6,320A2.4,2.4,0,0,1,208,322.4L208,333.6A2.4,2.4,0,0,1,205.6,336L194.4,336A2.4,2.4,0,0,1,192,333.6L192,322.4A2.4,2.4,0,0,1,194.4,320M194.4,464L205.6,464A2.4,2.4,0,0,0,208,461.6L208,450.4A2.4,2.4,0,0,1,210.4,448L221.6,448A2.4,2.4,0,0,0,224,445.6L224,434.4A2.4,2.4,0,0,0,221.6,432L210.4,432A2.4,2.4,0,0,1,208,429.6L208,418.4A2.4,2.4,0,0,1,210.4,416L224,416L237.6,416A2.4,2.4,0,0,1,240,418.4L240,432L240,445.6A2.4,2.4,0,0,0,242.4,448L253.6,448A2.4,2.4,0,0,0,256,445.6L256,432L256,418.4A2.4,2.4,0,0,1,258.4,416L269.6,416A2.4,2.4,0,0,1,272,418.4L272,429.6A2.4,2.4,0,0,0,274.4,432L285.6,432A2.4,2.4,0,0,1,288,434.4L288,445.6A2.4,2.4,0,0,1,285.6,448L274.4,448A2.4,2.4,0,0,0,272,450.4L272,464L272,480L272,493.6A2.4,2.4,0,0,1,269.6,496L258.4,496A2.4,2.4,0,0,1,256,493.6L256,480L256,466.4A2.4,2.4,0,0,0,253.6,464L242.4,464A2.4,2.4,0,0,0,240,466.4L240,477.6A2.4,2.4,0,0,1,237.6,480L226.4,480A2.4,2.4,0,0,0,224,482.4L224,496L224,509.6A2.4,2.4,0,0,1,221.6,512L210.4,512A2.4,2.4,0,0,1,208,509.6L208,496L208,482.4A2.4,2.4,0,0,0,205.6,480L194.4,480A2.4,2.4,0,0,1,192,477.6L192,466.4A2.4,2.4,0,0,1,194.4,464M194.4,512L205.6,512A2.4,2.4,0,0,1,208,514.4L208,528L208,544L208,557.6A2.4,2.4,0,0,1,205.6,560L194.4,560A2.4,2.4,0,0,1,192,557.6L192,544L192,528L192,514.4A2.4,2.4,0,0,1,194.4,512M210.4,304L224,304L237.6,304A2.4,2.4,0,0,1,240,306.4L240,317.6A2.4,2.4,0,0,1,237.6,320L224,320L210.4,320A2.4,2.4,0,0,1,208,317.6L208,306.4A2.4,2.4,0,0,1,210.4,304M210.4,352L221.6,352A2.4,2.4,0,0,1,224,354.4L224,365.6A2.4,2.4,0,0,1,221.6,368L210.4,368A2.4,2.4,0,0,1,208,365.6L208,354.4A2.4,2.4,0,0,1,210.4,352M210.4,560L221.6,560A2.4,2.4,0,0,1,224,562.4L224,573.6A2.4,2.4,0,0,1,221.6,576L210.4,576A2.4,2.4,0,0,1,208,573.6L208,562.4A2.4,2.4,0,0,1,210.4,560M226.4,64L237.6,64A2.4,2.4,0,0,1,240,66.4L240,77.6A2.4,2.4,0,0,1,237.6,80L226.4,80A2.4,2.4,0,0,1,224,77.6L224,66.4A2.4,2.4,0,0,1,226.4,64M226.4,208L237.6,208A2.4,2.4,0,0,1,240,210.4L240,224L240,237.6A2.4,2.4,0,0,1,237.6,240L226.4,240A2.4,2.4,0,0,1,224,237.6L224,224L224,210.4A2.4,2.4,0,0,1,226.4,208M226.4,512L237.6,512A2.4,2.4,0,0,1,240,514.4L240,525.6A2.4,2.4,0,0,1,237.6,528L226.4,528A2.4,2.4,0,0,1,224,525.6L224,514.4A2.4,2.4,0,0,1,226.4,512M226.4,544L237.6,544A2.4,2.4,0,0,0,240,541.6L240,530.4A2.4,2.4,0,0,1,242.4,528L256,528L269.6,528A2.4,2.4,0,0,0,272,525.6L272,512L272,498.4A2.4,2.4,0,0,1,274.4,496L285.6,496A2.4,2.4,0,0,1,288,498.4L288,509.6A2.4,2.4,0,0,0,290.4,512L301.6,512A2.4,2.4,0,0,1,304,514.4L304,525.6A2.4,2.4,0,0,1,301.6,528L290.4,528A2.4,2.4,0,0,0,288,530.4L288,541.6A2.4,2.4,0,0,1,285.6,544L272,544L258.4,544A2.4,2.4,0,0,0,256,546.4L256,560L256,573.6A2.4,2.4,0,0,0,258.4,576L269.6,576A2.4,2.4,0,0,1,272,578.4L272,589.6A2.4,2.4,0,0,1,269.6,592L256,592L240,592L226.4,592A2.4,2.4,0,0,1,224,589.6L224,578.4A2.4,2.4,0,0,1,226.4,576L237.6,576A2.4,2.4,0,0,0,240,573.6L240,562.4A2.4,2.4,0,0,0,237.6,560L226.4,560A2.4,2.4,0,0,1,224,557.6L224,546.4A2.4,2.4,0,0,1,226.4,544M242.4,80L256,80L269.6,80A2.4,2.4,0,0,1,272,82.4L272,93.6A2.4,2.4,0,0,1,269.6,96L256,96L242.4,96A2.4,2.4,0,0,1,240,93.6L240,82.4A2.4,2.4,0,0,1,242.4,80M242.4,400L253.6,400A2.4,2.4,0,0,1,256,402.4L256,413.6A2.4,2.4,0,0,1,253.6,416L242.4,416A2.4,2.4,0,0,1,240,413.6L240,402.4A2.4,2.4,0,0,1,242.4,400M242.4,496L253.6,496A2.4,2.4,0,0,1,256,498.4L256,509.6A2.4,2.4,0,0,1,253.6,512L242.4,512A2.4,2.4,0,0,1,240,509.6L240,498.4A2.4,2.4,0,0,1,242.4,496M258.4,112L272,112L288,112L301.6,112A2.4,2.4,0,0,1,304,114.4L304,125.6A2.4,2.4,0,0,1,301.6,128L288,128L272,128L258.4,128A2.4,2.4,0,0,1,256,125.6L256,114.4A2.4,2.4,0,0,1,258.4,112M258.4,192L272,192L285.6,192A2.4,2.4,0,0,1,288,194.4L288,205.6A2.4,2.4,0,0,1,285.6,208L272,208L258.4,208A2.4,2.4,0,0,1,256,205.6L256,194.4A2.4,2.4,0,0,1,258.4,192M274.4,64L285.6,64A2.4,2.4,0,0,1,288,66.4L288,77.6A2.4,2.4,0,0,1,285.6,80L274.4,80A2.4,2.4,0,0,1,272,77.6L272,66.4A2.4,2.4,0,0,1,274.4,64M274.4,240L288,240L301.6,240A2.4,2.4,0,0,1,304,242.4L304,253.6A2.4,2.4,0,0,0,306.4,256L317.6,256A2.4,2.4,0,0,1,320,258.4L320,269.6A2.4,2.4,0,0,1,317.6,272L304,272L290.4,272A2.4,2.4,0,0,1,288,269.6L288,258.4A2.4,2.4,0,0,0,285.6,256L274.4,256A2.4,2.4,0,0,1,272,253.6L272,242.4A2.4,2.4,0,0,1,274.4,240M274.4,560L285.6,560A2.4,2.4,0,0,0,288,557.6L288,546.4A2.4,2.4,0,0,1,290.4,544L301.6,544A2.4,2.4,0,0,1,304,546.4L304,557.6A2.4,2.4,0,0,0,306.4,560L317.6,560A2.4,2.4,0,0,1,320,562.4L320,576L320,589.6A2.4,2.4,0,0,1,317.6,592L304,592L290.4,592A2.4,2.4,0,0,1,288,589.6L288,578.4A2.4,2.4,0,0,0,285.6,576L274.4,576A2.4,2.4,0,0,1,272,573.6L272,562.4A2.4,2.4,0,0,1,274.4,560M290.4,160L301.6,160A2.4,2.4,0,0,1,304,162.4L304,173.6A2.4,2.4,0,0,0,306.4,176L317.6,176A2.4,2.4,0,0,1,320,178.4L320,192L320,208L320,221.6A2.4,2.4,0,0,1,317.6,224L306.4,224A2.4,2.4,0,0,1,304,221.6L304,208L304,194.4A2.4,2.4,0,0,0,301.6,192L290.4,192A2.4,2.4,0,0,1,288,189.6L288,176L288,162.4A2.4,2.4,0,0,1,290.4,160M304,402.4L304,413.6A2.4,2.4,0,0,0,306.4,416L317.6,416A2.4,2.4,0,0,0,320,413.6L320,402.4A2.4,2.4,0,0,1,322.4,400L333.6,400A2.4,2.4,0,0,1,336,402.4L336,416L336,429.6A2.4,2.4,0,0,0,338.4,432L349.6,432A2.4,2.4,0,0,0,352,429.6L352,416L352,402.4A2.4,2.4,0,0,0,349.6,400L338.4,400A2.4,2.4,0,0,1,336,397.6L336,384L336,370.4A2.4,2.4,0,0,0,333.6,368L322.4,368A2.4,2.4,0,0,0,320,370.4L320,384L320,397.6A2.4,2.4,0,0,1,317.6,400L306.4,400A2.4,2.4,0,0,0,304,402.4M290.4,480L301.6,480A2.4,2.4,0,0,1,304,482.4L304,493.6A2.4,2.4,0,0,1,301.6,496L290.4,496A2.4,2.4,0,0,1,288,493.6L288,482.4A2.4,2.4,0,0,1,290.4,480M306.4,64L317.6,64A2.4,2.4,0,0,1,320,66.4L320,77.6A2.4,2.4,0,0,1,317.6,80L306.4,80A2.4,2.4,0,0,1,304,77.6L304,66.4A2.4,2.4,0,0,1,306.4,64M306.4,96L320,96L336,96L352,96L365.6,96A2.4,2.4,0,0,1,368,98.4L368,112L368,125.6A2.4,2.4,0,0,0,370.4,128L384,128L400,128L413.6,128A2.4,2.4,0,0,0,416,125.6L416,114.4A2.4,2.4,0,0,0,413.6,112L402.4,112A2.4,2.4,0,0,1,400,109.6L400,98.4A2.4,2.4,0,0,1,402.4,96L413.6,96A2.4,2.4,0,0,0,416,93.6L416,82.4A2.4,2.4,0,0,1,418.4,80L429.6,80A2.4,2.4,0,0,1,432,82.4L432,93.6A2.4,2.4,0,0,0,434.4,96L445.6,96A2.4,2.4,0,0,0,448,93.6L448,82.4A2.4,2.4,0,0,0,445.6,80L434.4,80A2.4,2.4,0,0,1,432,77.6L432,66.4A2.4,2.4,0,0,1,434.4,64L448,64L461.6,64A2.4,2.4,0,0,1,464,66.4L464,80L464,96L464,112L464,125.6A2.4,2.4,0,0,1,461.6,128L448,128L434.4,128A2.4,2.4,0,0,0,432,130.4L432,141.6A2.4,2.4,0,0,1,429.6,144L416,144L402.4,144A2.4,2.4,0,0,0,400,146.4L400,160L400,173.6A2.4,2.4,0,0,1,397.6,176L386.4,176A2.4,2.4,0,0,1,384,173.6L384,160L384,146.4A2.4,2.4,0,0,0,381.6,144L368,144L354.4,144A2.4,2.4,0,0,0,352,146.4L352,157.6A2.4,2.4,0,0,1,349.6,160L338.4,160A2.4,2.4,0,0,1,336,157.6L336,144L336,128L336,114.4A2.4,2.4,0,0,0,333.6,112L320,112L306.4,112A2.4,2.4,0,0,1,304,109.6L304,98.4A2.4,2.4,0,0,1,306.4,96M306.4,128L317.6,128A2.4,2.4,0,0,1,320,130.4L320,144L320,157.6A2.4,2.4,0,0,1,317.6,160L306.4,160A2.4,2.4,0,0,1,304,157.6L304,144L304,130.4A2.4,2.4,0,0,1,306.4,128M306.4,496L317.6,496A2.4,2.4,0,0,1,320,498.4L320,509.6A2.4,2.4,0,0,1,317.6,512L306.4,512A2.4,2.4,0,0,1,304,509.6L304,498.4A2.4,2.4,0,0,1,306.4,496M306.4,528L317.6,528A2.4,2.4,0,0,1,320,530.4L320,541.6A2.4,2.4,0,0,1,317.6,544L306.4,544A2.4,2.4,0,0,1,304,541.6L304,530.4A2.4,2.4,0,0,1,306.4,528M322.4,160L333.6,160A2.4,2.4,0,0,1,336,162.4L336,173.6A2.4,2.4,0,0,1,333.6,176L322.4,176A2.4,2.4,0,0,1,320,173.6L320,162.4A2.4,2.4,0,0,1,322.4,160M322.4,240L336,240L349.6,240A2.4,2.4,0,0,0,352,237.6L352,224L352,210.4A2.4,2.4,0,0,1,354.4,208L365.6,208A2.4,2.4,0,0,1,368,210.4L368,221.6A2.4,2.4,0,0,0,370.4,224L381.6,224A2.4,2.4,0,0,0,384,221.6L384,210.4A2.4,2.4,0,0,0,381.6,208L370.4,208A2.4,2.4,0,0,1,368,205.6L368,194.4A2.4,2.4,0,0,0,365.6,192L354.4,192A2.4,2.4,0,0,1,352,189.6L352,176L352,162.4A2.4,2.4,0,0,1,354.4,160L365.6,160A2.4,2.4,0,0,1,368,162.4L368,173.6A2.4,2.4,0,0,0,370.4,176L381.6,176A2.4,2.4,0,0,1,384,178.4L384,189.6A2.4,2.4,0,0,0,386.4,192L397.6,192A2.4,2.4,0,0,1,400,194.4L400,205.6A2.4,2.4,0,0,0,402.4,208L413.6,208A2.4,2.4,0,0,1,416,210.4L416,224L416,237.6A2.4,2.4,0,0,0,418.4,240L432,240L445.6,240A2.4,2.4,0,0,1,448,242.4L448,253.6A2.4,2.4,0,0,0,450.4,256L464,256L477.6,256A2.4,2.4,0,0,1,480,258.4L480,269.6A2.4,2.4,0,0,1,477.6,272L466.4,272A2.4,2.4,0,0,0,464,274.4L464,285.6A2.4,2.4,0,0,1,461.6,288L448,288L434.4,288A2.4,2.4,0,0,0,432,290.4L432,304L432,317.6A2.4,2.4,0,0,1,429.6,320L416,320L402.4,320A2.4,2.4,0,0,1,400,317.6L400,306.4A2.4,2.4,0,0,1,402.4,304L413.6,304A2.4,2.4,0,0,0,416,301.6L416,288L416,274.4A2.4,2.4,0,0,1,418.4,272L429.6,272A2.4,2.4,0,0,0,432,269.6L432,258.4A2.4,2.4,0,0,0,429.6,256L418.4,256A2.4,2.4,0,0,0,416,258.4L416,269.6A2.4,2.4,0,0,1,413.6,272L402.4,272A2.4,2.4,0,0,1,400,269.6L400,256L400,242.4A2.4,2.4,0,0,0,397.6,240L386.4,240A2.4,2.4,0,0,0,384,242.4L384,253.6A2.4,2.4,0,0,1,381.6,256L370.4,256A2.4,2.4,0,0,0,368,258.4L368,272L368,285.6A2.4,2.4,0,0,0,370.4,288L381.6,288A2.4,2.4,0,0,1,384,290.4L384,301.6A2.4,2.4,0,0,1,381.6,304L368,304L354.4,304A2.4,2.4,0,0,1,352,301.6L352,288L352,272L352,258.4A2.4,2.4,0,0,0,349.6,256L336,256L322.4,256A2.4,2.4,0,0,1,320,253.6L320,242.4A2.4,2.4,0,0,1,322.4,240M322.4,512L336,512L349.6,512A2.4,2.4,0,0,1,352,514.4L352,525.6A2.4,2.4,0,0,1,349.6,528L336,528L322.4,528A2.4,2.4,0,0,1,320,525.6L320,514.4A2.4,2.4,0,0,1,322.4,512M338.4,544L349.6,544A2.4,2.4,0,0,0,352,541.6L352,530.4A2.4,2.4,0,0,1,354.4,528L365.6,528A2.4,2.4,0,0,0,368,525.6L368,514.4A2.4,2.4,0,0,1,370.4,512L381.6,512A2.4,2.4,0,0,1,384,514.4L384,525.6A2.4,2.4,0,0,0,386.4,528L397.6,528A2.4,2.4,0,0,1,400,530.4L400,541.6A2.4,2.4,0,0,1,397.6,544L386.4,544A2.4,2.4,0,0,0,384,546.4L384,557.6A2.4,2.4,0,0,1,381.6,560L370.4,560A2.4,2.4,0,0,0,368,562.4L368,573.6A2.4,2.4,0,0,1,365.6,576L354.4,576A2.4,2.4,0,0,0,352,578.4L352,589.6A2.4,2.4,0,0,1,349.6,592L338.4,592A2.4,2.4,0,0,1,336,589.6L336,576L336,560L336,546.4A2.4,2.4,0,0,1,338.4,544M354.4,64L365.6,64A2.4,2.4,0,0,1,368,66.4L368,77.6A2.4,2.4,0,0,1,365.6,80L354.4,80A2.4,2.4,0,0,1,352,77.6L352,66.4A2.4,2.4,0,0,1,354.4,64M354.4,496L365.6,496A2.4,2.4,0,0,1,368,498.4L368,509.6A2.4,2.4,0,0,1,365.6,512L354.4,512A2.4,2.4,0,0,1,352,509.6L352,498.4A2.4,2.4,0,0,1,354.4,496M370.4,448L381.6,448A2.4,2.4,0,0,0,384,445.6L384,432L384,418.4A2.4,2.4,0,0,1,386.4,416L397.6,416A2.4,2.4,0,0,0,400,413.6L400,402.4A2.4,2.4,0,0,1,402.4,400L413.6,400A2.4,2.4,0,0,1,416,402.4L416,413.6A2.4,2.4,0,0,0,418.4,416L429.6,416A2.4,2.4,0,0,1,432,418.4L432,429.6A2.4,2.4,0,0,1,429.6,432L418.4,432A2.4,2.4,0,0,0,416,434.4L416,445.6A2.4,2.4,0,0,1,413.6,448L402.4,448A2.4,2.4,0,0,0,400,450.4L400,464L400,477.6A2.4,2.4,0,0,1,397.6,480L386.4,480A2.4,2.4,0,0,1,384,477.6L384,466.4A2.4,2.4,0,0,0,381.6,464L370.4,464A2.4,2.4,0,0,1,368,461.6L368,450.4A2.4,2.4,0,0,1,370.4,448M386.4,64L397.6,64A2.4,2.4,0,0,1,400,66.4L400,77.6A2.4,2.4,0,0,1,397.6,80L386.4,80A2.4,2.4,0,0,1,384,77.6L384,66.4A2.4,2.4,0,0,1,386.4,64M386.4,272L397.6,272A2.4,2.4,0,0,1,400,274.4L400,285.6A2.4,2.4,0,0,1,397.6,288L386.4,288A2.4,2.4,0,0,1,384,285.6L384,274.4A2.4,2.4,0,0,1,386.4,272M386.4,560L397.6,560A2.4,2.4,0,0,1,400,562.4L400,576L400,589.6A2.4,2.4,0,0,1,397.6,592L386.4,592A2.4,2.4,0,0,1,384,589.6L384,576L384,562.4A2.4,2.4,0,0,1,386.4,560M402.4,176L413.6,176A2.4,2.4,0,0,1,416,178.4L416,189.6A2.4,2.4,0,0,1,413.6,192L402.4,192A2.4,2.4,0,0,1,400,189.6L400,178.4A2.4,2.4,0,0,1,402.4,176M402.4,512L416,512L429.6,512A2.4,2.4,0,0,1,432,514.4L432,525.6A2.4,2.4,0,0,1,429.6,528L416,528L402.4,528A2.4,2.4,0,0,1,400,525.6L400,514.4A2.4,2.4,0,0,1,402.4,512M402.4,544L413.6,544A2.4,2.4,0,0,1,416,546.4L416,557.6A2.4,2.4,0,0,1,413.6,560L402.4,560A2.4,2.4,0,0,1,400,557.6L400,546.4A2.4,2.4,0,0,1,402.4,544M418.4,160L429.6,160A2.4,2.4,0,0,1,432,162.4L432,173.6A2.4,2.4,0,0,1,429.6,176L418.4,176A2.4,2.4,0,0,1,416,173.6L416,162.4A2.4,2.4,0,0,1,418.4,160M418.4,192L429.6,192A2.4,2.4,0,0,0,432,189.6L432,178.4A2.4,2.4,0,0,1,434.4,176L445.6,176A2.4,2.4,0,0,1,448,178.4L448,192L448,208L448,221.6A2.4,2.4,0,0,1,445.6,224L434.4,224A2.4,2.4,0,0,1,432,221.6L432,210.4A2.4,2.4,0,0,0,429.6,208L418.4,208A2.4,2.4,0,0,1,416,205.6L416,194.4A2.4,2.4,0,0,1,418.4,192M418.4,352L429.6,352A2.4,2.4,0,0,1,432,354.4L432,365.6A2.4,2.4,0,0,1,429.6,368L418.4,368A2.4,2.4,0,0,1,416,365.6L416,354.4A2.4,2.4,0,0,1,418.4,352M418.4,384L429.6,384A2.4,2.4,0,0,1,432,386.4L432,397.6A2.4,2.4,0,0,1,429.6,400L418.4,400A2.4,2.4,0,0,1,416,397.6L416,386.4A2.4,2.4,0,0,1,418.4,384M418.4,448L429.6,448A2.4,2.4,0,0,1,432,450.4L432,464L432,477.6A2.4,2.4,0,0,0,434.4,480L445.6,480A2.4,2.4,0,0,0,448,477.6L448,464L448,450.4A2.4,2.4,0,0,0,445.6,448L434.4,448A2.4,2.4,0,0,1,432,445.6L432,434.4A2.4,2.4,0,0,1,434.4,432L445.6,432A2.4,2.4,0,0,0,448,429.6L448,416L448,400L448,386.4A2.4,2.4,0,0,0,445.6,384L434.4,384A2.4,2.4,0,0,1,432,381.6L432,370.4A2.4,2.4,0,0,1,434.4,368L448,368L464,368L477.6,368A2.4,2.4,0,0,1,480,370.4L480,384L480,397.6A2.4,2.4,0,0,0,482.4,400L493.6,400A2.4,2.4,0,0,0,496,397.6L496,386.4A2.4,2.4,0,0,1,498.4,384L509.6,384A2.4,2.4,0,0,0,512,381.6L512,370.4A2.4,2.4,0,0,1,514.4,368L528,368L541.6,368A2.4,2.4,0,0,0,544,365.6L544,354.4A2.4,2.4,0,0,1,546.4,352L557.6,352A2.4,2.4,0,0,1,560,354.4L560,365.6A2.4,2.4,0,0,0,562.4,368L576,368L589.6,368A2.4,2.4,0,0,1,592,370.4L592,381.6A2.4,2.4,0,0,1,589.6,384L576,384L560,384L546.4,384A2.4,2.4,0,0,0,544,386.4L544,397.6A2.4,2.4,0,0,1,541.6,400L528,400L514.4,400A2.4,2.4,0,0,0,512,402.4L512,416L512,429.6A2.4,2.4,0,0,1,509.6,432L498.4,432A2.4,2.4,0,0,1,496,429.6L496,418.4A2.4,2.4,0,0,0,493.6,416L480,416L466.4,416A2.4,2.4,0,0,0,464,418.4L464,432L464,445.6A2.4,2.4,0,0,0,466.4,448L480,448L496,448L512,448L525.6,448A2.4,2.4,0,0,0,528,445.6L528,432L528,418.4A2.4,2.4,0,0,1,530.4,416L544,416L557.6,416A2.4,2.4,0,0,0,560,413.6L560,402.4A2.4,2.4,0,0,1,562.4,400L576,400L589.6,400A2.4,2.4,0,0,1,592,402.4L592,413.6A2.4,2.4,0,0,1,589.6,416L578.4,416A2.4,2.4,0,0,0,576,418.4L576,429.6A2.4,2.4,0,0,0,578.4,432L589.6,432A2.4,2.4,0,0,1,592,434.4L592,448L592,464L592,477.6A2.4,2.4,0,0,1,589.6,480L578.4,480A2.4,2.4,0,0,1,576,477.6L576,466.4A2.4,2.4,0,0,0,573.6,464L562.4,464A2.4,2.4,0,0,1,560,461.6L560,450.4A2.4,2.4,0,0,0,557.6,448L546.4,448A2.4,2.4,0,0,0,544,450.4L544,461.6A2.4,2.4,0,0,0,546.4,464L557.6,464A2.4,2.4,0,0,1,560,466.4L560,477.6A2.4,2.4,0,0,0,562.4,480L573.6,480A2.4,2.4,0,0,1,576,482.4L576,493.6A2.4,2.4,0,0,0,578.4,496L589.6,496A2.4,2.4,0,0,1,592,498.4L592,512L592,525.6A2.4,2.4,0,0,1,589.6,528L578.4,528A2.4,2.4,0,0,0,576,530.4L576,541.6A2.4,2.4,0,0,1,573.6,544L560,544L546.4,544A2.4,2.4,0,0,1,544,541.6L544,530.4A2.4,2.4,0,0,1,546.4,528L557.6,528A2.4,2.4,0,0,0,560,525.6L560,514.4A2.4,2.4,0,0,0,557.6,512L546.4,512A2.4,2.4,0,0,1,544,509.6L544,498.4A2.4,2.4,0,0,0,541.6,496L530.4,496A2.4,2.4,0,0,0,528,498.4L528,512L528,528L528,541.6A2.4,2.4,0,0,1,525.6,544L514.4,544A2.4,2.4,0,0,1,512,541.6L512,530.4A2.4,2.4,0,0,0,509.6,528L496,528L482.4,528A2.4,2.4,0,0,0,480,530.4L480,541.6A2.4,2.4,0,0,0,482.4,544L493.6,544A2.4,2.4,0,0,1,496,546.4L496,557.6A2.4,2.4,0,0,0,498.4,560L509.6,560A2.4,2.4,0,0,1,512,562.4L512,573.6A2.4,2.4,0,0,1,509.6,576L496,576L480,576L466.4,576A2.4,2.4,0,0,1,464,573.6L464,560L464,544L464,530.4A2.4,2.4,0,0,0,461.6,528L450.4,528A2.4,2.4,0,0,1,448,525.6L448,514.4A2.4,2.4,0,0,0,445.6,512L434.4,512A2.4,2.4,0,0,1,432,509.6L432,498.4A2.4,2.4,0,0,0,429.6,496L418.4,496A2.4,2.4,0,0,1,416,493.6L416,480L416,464L416,450.4A2.4,2.4,0,0,1,418.4,448M418.4,560L429.6,560A2.4,2.4,0,0,0,432,557.6L432,544L432,530.4A2.4,2.4,0,0,1,434.4,528L445.6,528A2.4,2.4,0,0,1,448,530.4L448,544L448,560L448,573.6A2.4,2.4,0,0,0,450.4,576L461.6,576A2.4,2.4,0,0,1,464,578.4L464,589.6A2.4,2.4,0,0,1,461.6,592L448,592L434.4,592A2.4,2.4,0,0,1,432,589.6L432,578.4A2.4,2.4,0,0,0,429.6,576L418.4,576A2.4,2.4,0,0,1,416,573.6L416,562.4A2.4,2.4,0,0,1,418.4,560M434.4,144L448,144L461.6,144A2.4,2.4,0,0,1,464,146.4L464,160L464,173.6A2.4,2.4,0,0,1,461.6,176L450.4,176A2.4,2.4,0,0,1,448,173.6L448,162.4A2.4,2.4,0,0,0,445.6,160L434.4,160A2.4,2.4,0,0,1,432,157.6L432,146.4A2.4,2.4,0,0,1,434.4,144M434.4,320L445.6,320A2.4,2.4,0,0,1,448,322.4L448,333.6A2.4,2.4,0,0,0,450.4,336L461.6,336A2.4,2.4,0,0,1,464,338.4L464,349.6A2.4,2.4,0,0,1,461.6,352L448,352L434.4,352A2.4,2.4,0,0,1,432,349.6L432,336L432,322.4A2.4,2.4,0,0,1,434.4,320M450.4,304L464,304L480,304L493.6,304A2.4,2.4,0,0,1,496,306.4L496,317.6A2.4,2.4,0,0,1,493.6,320L482.4,320A2.4,2.4,0,0,0,480,322.4L480,333.6A2.4,2.4,0,0,1,477.6,336L466.4,336A2.4,2.4,0,0,1,464,333.6L464,322.4A2.4,2.4,0,0,0,461.6,320L450.4,320A2.4,2.4,0,0,1,448,317.6L448,306.4A2.4,2.4,0,0,1,450.4,304M464,466.4L464,480L464,496L464,509.6A2.4,2.4,0,0,0,466.4,512L480,512L496,512L509.6,512A2.4,2.4,0,0,0,512,509.6L512,496L512,480L512,466.4A2.4,2.4,0,0,0,509.6,464L496,464L480,464L466.4,464A2.4,2.4,0,0,0,464,466.4M466.4,192L480,192L496,192L509.6,192A2.4,2.4,0,0,1,512,194.4L512,205.6A2.4,2.4,0,0,1,509.6,208L498.4,208A2.4,2.4,0,0,0,496,210.4L496,221.6A2.4,2.4,0,0,0,498.4,224L509.6,224A2.4,2.4,0,0,1,512,226.4L512,237.6A2.4,2.4,0,0,1,509.6,240L498.4,240A2.4,2.4,0,0,0,496,242.4L496,253.6A2.4,2.4,0,0,1,493.6,256L482.4,256A2.4,2.4,0,0,1,480,253.6L480,242.4A2.4,2.4,0,0,0,477.6,240L466.4,240A2.4,2.4,0,0,1,464,237.6L464,224L464,208L464,194.4A2.4,2.4,0,0,1,466.4,192M482.4,272L493.6,272A2.4,2.4,0,0,1,496,274.4L496,285.6A2.4,2.4,0,0,1,493.6,288L482.4,288A2.4,2.4,0,0,1,480,285.6L480,274.4A2.4,2.4,0,0,1,482.4,272M482.4,336L493.6,336A2.4,2.4,0,0,1,496,338.4L496,349.6A2.4,2.4,0,0,1,493.6,352L482.4,352A2.4,2.4,0,0,1,480,349.6L480,338.4A2.4,2.4,0,0,1,482.4,336M482.4,480L493.6,480A2.4,2.4,0,0,1,496,482.4L496,493.6A2.4,2.4,0,0,1,493.6,496L482.4,496A2.4,2.4,0,0,1,480,493.6L480,482.4A2.4,2.4,0,0,1,482.4,480M498.4,320L509.6,320A2.4,2.4,0,0,0,512,317.6L512,306.4A2.4,2.4,0,0,1,514.4,304L525.6,304A2.4,2.4,0,0,0,528,301.6L528,288L528,274.4A2.4,2.4,0,0,1,530.4,272L541.6,272A2.4,2.4,0,0,1,544,274.4L544,288L544,301.6A2.4,2.4,0,0,0,546.4,304L557.6,304A2.4,2.4,0,0,0,560,301.6L560,290.4A2.4,2.4,0,0,1,562.4,288L573.6,288A2.4,2.4,0,0,1,576,290.4L576,301.6A2.4,2.4,0,0,0,578.4,304L589.6,304A2.4,2.4,0,0,1,592,306.4L592,320L592,336L592,349.6A2.4,2.4,0,0,1,589.6,352L576,352L562.4,352A2.4,2.4,0,0,1,560,349.6L560,336L560,322.4A2.4,2.4,0,0,0,557.6,320L546.4,320A2.4,2.4,0,0,0,544,322.4L544,333.6A2.4,2.4,0,0,1,541.6,336L528,336L512,336L498.4,336A2.4,2.4,0,0,1,496,333.6L496,322.4A2.4,2.4,0,0,1,498.4,320M514.4,256L525.6,256A2.4,2.4,0,0,1,528,258.4L528,269.6A2.4,2.4,0,0,1,525.6,272L514.4,272A2.4,2.4,0,0,1,512,269.6L512,258.4A2.4,2.4,0,0,1,514.4,256M530.4,208L541.6,208A2.4,2.4,0,0,0,544,205.6L544,194.4A2.4,2.4,0,0,1,546.4,192L560,192L576,192L589.6,192A2.4,2.4,0,0,1,592,194.4L592,208L592,221.6A2.4,2.4,0,0,1,589.6,224L578.4,224A2.4,2.4,0,0,1,576,221.6L576,210.4A2.4,2.4,0,0,0,573.6,208L562.4,208A2.4,2.4,0,0,0,560,210.4L560,221.6A2.4,2.4,0,0,0,562.4,224L573.6,224A2.4,2.4,0,0,1,576,226.4L576,237.6A2.4,2.4,0,0,1,573.6,240L562.4,240A2.4,2.4,0,0,0,560,242.4L560,253.6A2.4,2.4,0,0,1,557.6,256L544,256L530.4,256A2.4,2.4,0,0,1,528,253.6L528,242.4A2.4,2.4,0,0,1,530.4,240L541.6,240A2.4,2.4,0,0,0,544,237.6L544,226.4A2.4,2.4,0,0,0,541.6,224L530.4,224A2.4,2.4,0,0,1,528,221.6L528,210.4A2.4,2.4,0,0,1,530.4,208M578.4,240L589.6,240A2.4,2.4,0,0,1,592,242.4L592,253.6A2.4,2.4,0,0,1,589.6,256L578.4,256A2.4,2.4,0,0,1,576,253.6L576,242.4A2.4,2.4,0,0,1,578.4,240M578.4,272L589.6,272A2.4,2.4,0,0,1,592,274.4L592,285.6A2.4,2.4,0,0,1,589.6,288L578.4,288A2.4,2.4,0,0,1,576,285.6L576,274.4A2.4,2.4,0,0,1,578.4,272Z" />
<path d="M4.7253,9.0689C6.179,9.0436 6.4149,7.6154 6.4149,6.769C6.4149,5.5163 5.775,5.0788 5,5C4.0425,5.4242 3.3403,6.146 3.2555,7.2606C3.2416,7.4443 3.237,7.6894 3.2516,7.9757C3.2906,8.7383 3.8493,9.0843 4.7253,9.0689 M 12.2447 10.8068 C 11.2047 10.8068 10.1118 10.1673 10.06 8.9707 C 8.8774 10.2223 7.0538 10.8186 4.7253 10.8186 C 2.3769 10.8186 1.396 9.2175 1.396 7.9703 C 1.4554 3.8126 1.3605 2.255 1.341 1.9353 C 1.3393 1.907 1.3381 1.8884 1.3377 1.8785 L 1.3373 1.8677 C 1.3313 1.7096 1.3224 1.4733 1.172 1.4572 C 1.0786 1.4472 1.0183 1.4757 0.911 1.6094 C 0.75 1.8233 0.425 1.908 0.2273 1.7937 C -0.0116 1.6555 -0.0562 1.3505 0.0647 1.0697 C 0.4002 0.3212 0.9379 -0.01 1.6625 0.0003 C 2.9146 0.0182 3.2738 0.8359 3.2738 1.8575 C 3.2738 1.8575 3.246 3.3292 3.246 4.1579 C 3.689 3.7969 4.3397 3.4098 5.4266 3.4098 C 7.6899 3.4098 9.1267 6.2118 7.6503 8.8925 C 9.5428 8.0197 9.9378 6.5164 10.0112 5.0238 L 10.0043 4.5203 C 10.0043 3.9552 10.3688 3.4767 10.9361 3.4767 C 11.5034 3.4767 11.8802 3.9877 11.86 4.5271 C 11.7919 6.3438 11.7644 7.5395 11.7644 8.1722 C 11.7644 8.5384 11.9642 9.0996 12.5555 9.0996 C 13.7134 9.0996 14.094 8.1922 14.1838 6.0595 C 14.1885 5.2642 14.1927 4.5997 14.1927 4.5997 C 13.6679 4.5997 13.4094 4.324 13.4094 3.9795 C 13.4094 3.635 13.683 3.3163 14.1321 3.3163 C 14.1321 3.3163 14.133 2.1182 14.133 1.622 C 14.133 1.0569 14.5715 0.5883 15.1388 0.5883 C 15.7062 0.5883 16.1567 1.0569 16.1567 1.622 C 16.1567 1.8095 16.1495 2.028 16.1416 2.2695 C 16.1315 2.5784 16.1201 2.9246 16.121 3.2909 L 16.2032 3.2905 H 16.2032 C 16.357 3.29 16.7051 3.2888 17.1681 3.2834 C 17.7198 3.2769 17.9445 3.5851 17.9445 3.9709 C 17.9445 4.3567 17.6475 4.626 17.2602 4.6276 C 16.9012 4.6291 16.1083 4.6247 16.1083 4.6247 C 16.0723 5.7674 16.0382 7.1451 16.0382 8.2475 C 16.0382 8.6451 16.3126 9.0995 16.9767 9.0995 C 18.3163 9.0995 18.8167 7.9092 18.9173 5.6498 C 18.9095 4.0766 18.8907 3.1653 18.8765 2.4785 V 2.4785 C 18.8666 1.9969 18.859 1.6258 18.859 1.2143 C 18.859 0.6493 19.3295 0.1442 19.8967 0.1442 C 20.4641 0.1442 20.8826 0.5977 20.8826 1.1627 C 20.8826 1.598 20.8651 2.1069 20.8413 2.8009 V 2.8009 V 2.801 C 20.801 3.9747 20.7425 5.6778 20.7195 8.4504 C 20.7165 8.8195 20.8967 9.0795 21.3748 9.0795 C 22.6524 9.0795 23.0066 7.6955 23.119 5.7625 C 23.1197 5.6695 23.1205 5.5785 23.1214 5.4891 L 23.1214 5.4887 C 23.1231 5.3054 23.1247 5.1289 23.1247 4.9561 C 23.1247 4.391 23.5011 3.9337 24.0686 3.9337 C 24.6359 3.9337 24.9694 4.4022 24.9694 4.9673 C 24.9694 5.3698 24.9562 5.7464 24.9427 6.1348 C 24.9307 6.4777 24.9184 6.8299 24.9146 7.2176 C 24.9047 8.2151 25.2455 9.0938 26.0756 9.0914 C 26.8726 9.0891 27.7479 8.7536 27.7691 7.045 C 27.7751 6.5701 27.7683 6.2053 27.7615 5.8371 V 5.837 V 5.8369 V 5.8368 C 27.7564 5.5642 27.7513 5.2897 27.7513 4.9673 C 27.7513 4.4022 28.1451 3.9337 28.7125 3.9337 C 29.2795 3.9337 29.6737 4.4022 29.6737 4.9673 C 29.6737 5.3051 29.6614 5.6415 29.6477 6.0145 V 6.0145 V 6.0146 V 6.0146 C 29.6307 6.4783 29.6117 6.9984 29.6117 7.6477 C 29.6117 7.6477 29.5769 10.0141 29.66 10.5378 C 29.9203 10.4512 30.2958 10.1968 30.6935 9.5802 C 30.9337 9.208 31.3928 9.1282 31.6758 9.293 C 32.0653 9.52 32.0514 9.9635 31.9058 10.2875 C 31.5298 11.1239 31.0409 11.6358 29.8047 12.0595 C 29.8086 13.4782 29.7098 15.5713 27.0868 15.9496 C 24.8405 16.2735 23.8244 14.9708 23.8211 13.8623 C 23.8157 12.112 25.5649 11.6022 28.0897 10.9665 L 28.0087 10.099 C 28.0087 10.099 27.4464 10.8364 26.0215 10.8008 C 24.9223 10.7733 24.1663 10.2543 23.7077 9.5213 C 23.1787 10.3901 22.3495 10.8105 21.1004 10.8105 C 20.2775 10.8105 19.4934 10.3758 19.1051 9.7457 C 18.5325 10.4308 17.7339 10.8015 16.6607 10.8015 C 15.7256 10.8015 15.0346 10.4786 14.6209 9.9746 C 14.087 10.5712 13.318 10.8068 12.2447 10.8068 Z M 28.2548 12.363 C 26.9786 12.6385 25.3798 13.0407 25.3983 13.8266 C 25.4158 14.5636 26.1767 14.6977 26.8111 14.5666 C 28.1286 14.2943 28.2816 13.5015 28.2548 12.363 Z M 11.9704 1.6249 C 11.9704 1.0544 11.5073 0.5932 10.9347 0.5932 C 10.3619 0.5932 9.8989 1.0544 9.8989 1.6249 C 9.8989 2.1953 10.3619 2.6566 10.9347 2.6566 C 11.5073 2.6566 11.9704 2.1953 11.9704 1.6249 Z" fill='#198639' transform='translate(520.000000, 556.000000) scale(2.250000, 2.250000)' />
</g>
<g id='corners-outer-1' transform="translate(64, 64) scale(5.60, 5.60) " style='fill:#198639' >
<path d="M 17.14 0 H 2 C 0.9 0 0 0.9 0 2 V 18 C 0 19.1 0.9 20 2 20 H 18 C 19.1 20 20 19.1 20 18 V 2 C 20 0.9 19.1 0 18 0 H 17.14 Z M 17.14 5.71 V 15.14 C 17.14 16.25 16.25 17.14 15.14 17.14 H 4.86 C 3.75 17.14 2.86 16.25 2.86 15.14 V 4.86 C 2.86 3.75 3.75 2.86 4.86 2.86 H 15.14 C 16.25 2.86 17.14 3.75 17.14 4.86 V 5.71 Z" />
</g>
<g id='corners-inner-1' transform="translate(96, 96) scale(5.60, 5.60) " style='fill:#198639' >
<path d="M 5.64 0 H 1 C 0.45 0 0 0.45 0 1 V 7.46 C 0 8.01 0.45 8.46 1 8.46 H 7.46 C 8.01 8.46 8.46 8.01 8.46 7.46 V 1 C 8.46 0.45 8.01 0 7.46 0 H 5.64 Z" />
</g>
<g id='corners-outer-2' transform="translate(480, 64) scale(5.60, 5.60) " style='fill:#198639' >
<path d="M 17.14 0 H 2 C 0.9 0 0 0.9 0 2 V 18 C 0 19.1 0.9 20 2 20 H 18 C 19.1 20 20 19.1 20 18 V 2 C 20 0.9 19.1 0 18 0 H 17.14 Z M 17.14 5.71 V 15.14 C 17.14 16.25 16.25 17.14 15.14 17.14 H 4.86 C 3.75 17.14 2.86 16.25 2.86 15.14 V 4.86 C 2.86 3.75 3.75 2.86 4.86 2.86 H 15.14 C 16.25 2.86 17.14 3.75 17.14 4.86 V 5.71 Z" />
</g>
<g id='corners-inner-2' transform="translate(512, 96) scale(5.60, 5.60) " style='fill:#198639' >
<path d="M 5.64 0 H 1 C 0.45 0 0 0.45 0 1 V 7.46 C 0 8.01 0.45 8.46 1 8.46 H 7.46 C 8.01 8.46 8.46 8.01 8.46 7.46 V 1 C 8.46 0.45 8.01 0 7.46 0 H 5.64 Z" />
</g>
<g id='corners-outer-3' transform="translate(64, 480) scale(5.60, 5.60) " style='fill:#198639' >
<path d="M 17.14 0 H 2 C 0.9 0 0 0.9 0 2 V 18 C 0 19.1 0.9 20 2 20 H 18 C 19.1 20 20 19.1 20 18 V 2 C 20 0.9 19.1 0 18 0 H 17.14 Z M 17.14 5.71 V 15.14 C 17.14 16.25 16.25 17.14 15.14 17.14 H 4.86 C 3.75 17.14 2.86 16.25 2.86 15.14 V 4.86 C 2.86 3.75 3.75 2.86 4.86 2.86 H 15.14 C 16.25 2.86 17.14 3.75 17.14 4.86 V 5.71 Z" />
</g>
<g id='corners-inner-3' transform="translate(96, 512) scale(5.60, 5.60) " style='fill:#198639' >
<path d="M 5.64 0 H 1 C 0.45 0 0 0.45 0 1 V 7.46 C 0 8.01 0.45 8.46 1 8.46 H 7.46 C 8.01 8.46 8.46 8.01 8.46 7.46 V 1 C 8.46 0.45 8.01 0 7.46 0 H 5.64 Z" />
</g>
</svg>
