<?xml version="1.0" encoding="utf-8"?>
<!-- Generator: Adobe Illustrator 17.0.0, SVG Export Plug-In . SVG Version: 6.00 Build 0)  -->
<!DOCTYPE svg PUBLIC "-//W3C//DTD SVG 1.1//EN" "http://www.w3.org/Graphics/SVG/1.1/DTD/svg11.dtd">
<svg version="1.1" id="Capa_1" xmlns="http://www.w3.org/2000/svg" xmlns:xlink="http://www.w3.org/1999/xlink" x="0px" y="0px"
	 width="841.89px" height="595.276px" viewBox="0 0 841.89 595.276" enable-background="new 0 0 841.89 595.276"
	 xml:space="preserve">
<path fill="#004987" d="M365.684,224.766v21.771c0,3.105,0.505,5.376,1.521,6.809c1.515,2.077,3.647,3.112,6.396,3.112
	c2.763,0,4.902-1.035,6.418-3.112c1.014-1.388,1.521-3.659,1.521-6.809v-21.771h5.458v23.284c0,3.811-1.187,6.951-3.561,9.416
	c-2.671,2.749-5.949,4.123-9.837,4.123c-3.889,0-7.161-1.374-9.816-4.123c-2.373-2.465-3.561-5.605-3.561-9.416v-23.284H365.684z"/>
<path fill="#004987" d="M396.385,260.936v-38.627l26.376,27.594v-25.136h5.458v38.371l-26.376-27.525v25.324H396.385z"/>
<path fill="#004987" d="M443.065,224.766v36.169h-5.458v-36.169H443.065z"/>
<path fill="#004987" d="M454.3,224.766l10.003,25.067l10.141-25.067h5.973l-16.233,38.887l-15.859-38.887H454.3z"/>
<path fill="#004987" d="M505.594,229.897h-14.5v8.693h14.078v5.131h-14.078v12.085h14.5v5.131h-19.957v-36.169h19.957V229.897z"/>
<path fill="#004987" d="M525.732,245.523l11.197,15.412h-6.676l-10.33-14.806h-0.983v14.806h-5.458v-36.169h6.394
	c4.779,0,8.231,0.9,10.354,2.697c2.342,1.997,3.514,4.635,3.514,7.917c0,2.562-0.736,4.763-2.204,6.605
	C530.073,243.827,528.138,245.008,525.732,245.523z M518.939,241.376h1.733c5.168,0,7.755-1.977,7.755-5.927
	c0-3.701-2.515-5.553-7.543-5.553h-1.944V241.376z"/>
<path fill="#004987" d="M563.533,230.132l-4.428,2.624c-0.827-1.437-1.617-2.375-2.366-2.811c-0.781-0.499-1.788-0.751-3.02-0.751
	c-1.516,0-2.773,0.433-3.772,1.291c-1.001,0.845-1.499,1.907-1.499,3.188c0,1.766,1.31,3.188,3.934,4.265l3.607,1.478
	c2.936,1.188,5.084,2.635,6.443,4.348c1.359,1.71,2.037,3.808,2.037,6.293c0,3.327-1.109,6.079-3.327,8.25
	c-2.233,2.188-5.004,3.282-8.315,3.282c-3.138,0-5.731-0.931-7.777-2.801c-2.013-1.862-3.271-4.483-3.77-7.855l5.527-1.219
	c0.251,2.122,0.687,3.59,1.312,4.404c1.125,1.561,2.764,2.34,4.919,2.34c1.702,0,3.116-0.568,4.241-1.707
	c1.123-1.139,1.686-2.583,1.686-4.331c0-0.703-0.099-1.347-0.293-1.932c-0.195-0.585-0.5-1.122-0.914-1.613
	c-0.414-0.492-0.949-0.952-1.605-1.381c-0.656-0.429-1.437-0.841-2.342-1.229l-3.491-1.454c-4.951-2.091-7.426-5.148-7.426-9.174
	c0-2.714,1.039-4.985,3.116-6.813c2.077-1.842,4.661-2.763,7.755-2.763C557.934,224.063,561.191,226.089,563.533,230.132z"/>
<path fill="#004987" d="M577.23,224.766v36.169h-5.458v-36.169H577.23z"/>
<path fill="#004987" d="M586.641,260.936v-36.169h7.588c3.638,0,6.512,0.36,8.62,1.08c2.264,0.703,4.319,1.897,6.162,3.583
	c3.732,3.403,5.598,7.879,5.598,13.421c0,5.56-1.944,10.057-5.833,13.494c-1.953,1.717-3.997,2.911-6.136,3.583
	c-1.999,0.672-4.835,1.007-8.504,1.007H586.641z M592.099,255.805h2.46c2.451,0,4.488-0.256,6.114-0.772
	c1.624-0.547,3.092-1.412,4.404-2.6c2.686-2.454,4.03-5.646,4.03-9.582c0-3.967-1.328-7.183-3.983-9.652
	c-2.389-2.202-5.911-3.303-10.564-3.303h-2.46V255.805z"/>
<path fill="#004987" d="M641.656,252.149h-15.483l-4.03,8.786h-5.88l17.896-38.44l17.264,38.44h-5.973L641.656,252.149z
	 M639.43,247.022l-5.364-12.3l-5.622,12.3H639.43z"/>
<path fill="#004987" d="M656.667,260.936v-36.169h7.588c3.638,0,6.512,0.36,8.62,1.08c2.264,0.703,4.319,1.897,6.162,3.583
	c3.732,3.403,5.598,7.879,5.598,13.421c0,5.56-1.944,10.057-5.833,13.494c-1.953,1.717-3.997,2.911-6.136,3.583
	c-1.999,0.672-4.834,1.007-8.504,1.007H656.667z M662.125,255.805h2.46c2.451,0,4.488-0.256,6.114-0.772
	c1.624-0.547,3.091-1.412,4.404-2.6c2.686-2.454,4.03-5.646,4.03-9.582c0-3.967-1.328-7.183-3.983-9.652
	c-2.389-2.202-5.911-3.303-10.564-3.303h-2.46V255.805z"/>
<path fill="#004987" d="M360.225,315.307v-36.169h7.59c3.639,0,6.512,0.36,8.62,1.077c2.264,0.703,4.319,1.897,6.16,3.583
	c3.732,3.406,5.598,7.879,5.598,13.422c0,5.563-1.944,10.06-5.833,13.498c-1.951,1.717-3.997,2.911-6.136,3.583
	c-1.999,0.672-4.835,1.007-8.504,1.007H360.225z M365.684,310.177h2.458c2.451,0,4.49-0.26,6.114-0.772
	c1.624-0.547,3.092-1.416,4.404-2.6c2.686-2.455,4.03-5.646,4.03-9.586c0-3.964-1.326-7.183-3.981-9.648
	c-2.39-2.202-5.913-3.303-10.565-3.303h-2.458V310.177z"/>
<path fill="#004987" d="M415.015,284.268h-14.5v8.689h14.077v5.13h-14.077v12.089h14.5v5.13h-19.957v-36.169h19.957V284.268z"/>
<path fill="#004987" d="M438.216,279.138v31.039h10.635v5.13h-16.092v-36.169H438.216z"/>
<path fill="#004987" d="M477.288,306.521h-15.483l-4.03,8.786h-5.88l17.896-38.444l17.264,38.444h-5.973L477.288,306.521z
	 M475.063,301.391l-5.364-12.3l-5.622,12.3H475.063z"/>
<path fill="#004987" d="M512.141,299.892l11.197,15.415h-6.676l-10.33-14.806h-0.983v14.806h-5.458v-36.169h6.394
	c4.779,0,8.231,0.897,10.354,2.693c2.342,1.998,3.514,4.639,3.514,7.917c0,2.562-0.736,4.763-2.204,6.605
	C516.482,298.195,514.547,299.376,512.141,299.892z M505.349,295.744h1.733c5.168,0,7.755-1.973,7.755-5.927
	c0-3.701-2.515-5.549-7.543-5.549h-1.944V295.744z"/>
<path fill="#004987" d="M548.731,284.268h-14.5v8.689h14.078v5.13h-14.078v12.089h14.5v5.13h-19.958v-36.169h19.958V284.268z"/>
<path fill="#004987" d="M561.356,300.619v14.689h-5.458v-36.169h6.183c3.029,0,5.317,0.211,6.863,0.63
	c1.563,0.422,2.937,1.219,4.123,2.392c2.077,2.029,3.116,4.59,3.116,7.682c0,3.31-1.11,5.934-3.327,7.872
	c-2.217,1.939-5.208,2.904-8.971,2.904H561.356z M561.356,295.557h2.037c5.013,0,7.519-1.928,7.519-5.785
	c0-3.732-2.584-5.601-7.753-5.601h-1.804V295.557z"/>
<path fill="#004987" d="M587.265,279.138v21.768c0,3.109,0.507,5.376,1.521,6.813c1.515,2.077,3.647,3.112,6.396,3.112
	c2.764,0,4.904-1.035,6.418-3.112c1.014-1.388,1.523-3.659,1.523-6.813v-21.768h5.458v23.284c0,3.811-1.187,6.951-3.561,9.416
	c-2.671,2.749-5.951,4.123-9.839,4.123c-3.889,0-7.161-1.374-9.814-4.123c-2.375-2.465-3.56-5.605-3.56-9.416v-23.284H587.265z
	 M603.475,269.417l-9.558,6.463l-2.6-2.177l7.519-7.543L603.475,269.417z"/>
<path fill="#004987" d="M617.248,315.307v-36.169h5.433c2.422,0,4.35,0.187,5.786,0.561c1.452,0.374,2.678,1.007,3.678,1.897
	c1.014,0.921,1.818,2.07,2.411,3.445c0.609,1.388,0.914,2.794,0.914,4.216c0,2.593-0.992,4.784-2.974,6.581
	c1.92,0.658,3.434,1.803,4.544,3.444c1.125,1.627,1.686,3.514,1.686,5.67c0,2.825-0.999,5.217-2.998,7.17
	c-1.203,1.201-2.553,2.036-4.052,2.506c-1.639,0.45-3.694,0.678-6.16,0.678H617.248z M622.705,294.668h1.71
	c2.029,0,3.517-0.45,4.462-1.347c0.943-0.9,1.416-2.223,1.416-3.971c0-1.703-0.483-2.994-1.452-3.877
	c-0.968-0.883-2.373-1.322-4.216-1.322h-1.92V294.668z M622.705,310.177h3.374c2.467,0,4.277-0.485,5.433-1.454
	c1.219-1.046,1.828-2.371,1.828-3.981c0-1.561-0.587-2.873-1.757-3.936c-1.141-1.045-3.178-1.572-6.114-1.572h-2.764V310.177z"/>
<path fill="#004987" d="M651.072,279.138v31.039h10.635v5.13h-16.092v-36.169H651.072z"/>
<path fill="#004987" d="M672.341,279.138v36.169h-5.458v-36.169H672.341z"/>
<path fill="#004987" d="M707.759,281.07v6.453c-3.156-2.638-6.418-3.957-9.792-3.957c-3.716,0-6.848,1.333-9.394,4.005
	c-2.562,2.655-3.841,5.902-3.841,9.745c0,3.794,1.279,6.996,3.841,9.603c2.562,2.61,5.7,3.912,9.416,3.912
	c1.921,0,3.553-0.311,4.897-0.935c0.749-0.312,1.527-0.734,2.33-1.267c0.805-0.53,1.651-1.17,2.543-1.921v6.595
	c-3.124,1.772-6.403,2.659-9.839,2.659c-5.168,0-9.581-1.804-13.235-5.411c-3.64-3.638-5.458-8.024-5.458-13.165
	c0-4.608,1.521-8.713,4.566-12.321c3.749-4.421,8.598-6.629,14.547-6.629C701.59,278.435,704.728,279.311,707.759,281.07z"/>
<path fill="#004987" d="M736.759,306.521h-15.483l-4.03,8.786h-5.88l17.896-38.444l17.264,38.444h-5.973L736.759,306.521z
	 M734.533,301.391l-5.364-12.3l-5.622,12.3H734.533z"/>
<path fill="#004987" d="M365.684,333.51v21.768c0,3.105,0.505,5.376,1.521,6.813c1.515,2.074,3.647,3.112,6.396,3.112
	c2.763,0,4.902-1.038,6.418-3.112c1.014-1.392,1.521-3.663,1.521-6.813V333.51h5.458v23.284c0,3.808-1.187,6.948-3.561,9.416
	c-2.671,2.749-5.949,4.123-9.837,4.123c-3.889,0-7.161-1.374-9.816-4.123c-2.373-2.468-3.561-5.608-3.561-9.416V333.51H365.684z"/>
<path fill="#004987" d="M409.357,354.263l11.197,15.412h-6.678l-10.33-14.803h-0.983v14.803h-5.458V333.51h6.396
	c4.777,0,8.229,0.897,10.353,2.693c2.342,1.998,3.514,4.639,3.514,7.917c0,2.562-0.734,4.763-2.202,6.605
	C413.698,352.57,411.761,353.747,409.357,354.263z M402.563,350.116h1.734c5.169,0,7.753-1.973,7.753-5.927
	c0-3.701-2.515-5.549-7.542-5.549h-1.946V350.116z"/>
<path fill="#004987" d="M432.345,333.51v21.768c0,3.105,0.509,5.376,1.523,6.813c1.513,2.074,3.645,3.112,6.394,3.112
	c2.766,0,4.905-1.038,6.418-3.112c1.014-1.392,1.523-3.663,1.523-6.813V333.51h5.459v23.284c0,3.808-1.187,6.948-3.562,9.416
	c-2.669,2.749-5.951,4.123-9.838,4.123c-3.888,0-7.159-1.374-9.814-4.123c-2.375-2.468-3.559-5.608-3.559-9.416V333.51H432.345z"/>
<path fill="#004987" d="M482.367,350.843h14.945v1.194c0,2.718-0.32,5.123-0.961,7.214c-0.625,1.939-1.679,3.749-3.162,5.435
	c-3.358,3.78-7.628,5.667-12.814,5.667c-5.059,0-9.392-1.824-12.999-5.48c-3.607-3.67-5.411-8.073-5.411-13.21
	c0-5.248,1.835-9.697,5.504-13.352c3.67-3.67,8.135-5.504,13.399-5.504c2.825,0,5.465,0.575,7.917,1.724
	c2.342,1.153,4.646,3.019,6.91,5.608l-3.888,3.725c-2.969-3.953-6.583-5.927-10.846-5.927c-3.827,0-7.036,1.319-9.628,3.957
	c-2.593,2.593-3.889,5.84-3.889,9.745c0,4.03,1.445,7.35,4.334,9.956c2.702,2.42,5.629,3.631,8.784,3.631
	c2.685,0,5.097-0.904,7.237-2.711c2.139-1.824,3.335-4.005,3.585-6.543h-9.018V350.843z"/>
<path fill="#004987" d="M511.073,333.51v21.768c0,3.105,0.507,5.376,1.521,6.813c1.514,2.074,3.647,3.112,6.396,3.112
	c2.764,0,4.904-1.038,6.418-3.112c1.014-1.392,1.523-3.663,1.523-6.813V333.51h5.458v23.284c0,3.808-1.187,6.948-3.561,9.416
	c-2.671,2.749-5.951,4.123-9.839,4.123c-3.889,0-7.161-1.374-9.814-4.123c-2.375-2.468-3.56-5.608-3.56-9.416V333.51H511.073z"/>
<path fill="#004987" d="M562.195,360.893h-15.483l-4.03,8.783h-5.88l17.896-38.44l17.264,38.44h-5.973L562.195,360.893z
	 M559.969,355.762l-5.364-12.296l-5.622,12.296H559.969z"/>
<path fill="#004987" d="M582.07,354.052l-11.807-20.542h6.278l8.268,14.453l8.293-14.453h6.278l-11.853,20.542v15.623h-5.458
	V354.052z"/>
<g>
	<polygon fill="#004987" points="157.578,393.24 157.578,394.569 160.207,394.569 160.207,393.24 160.207,392.797 157.578,392.797 	
		"/>
	<rect x="157.578" y="387.478" fill="#004987" width="2.629" height="1.772"/>
	<polygon fill="#004987" points="169.408,372.839 167.303,372.839 168.355,377.63 169.408,378.164 170.458,377.63 171.509,372.839 	
		"/>
	<rect x="178.609" y="398.564" fill="#004987" width="3.941" height="1.772"/>
	<rect x="178.609" y="392.797" fill="#004987" width="3.941" height="1.772"/>
	<rect x="178.609" y="387.478" fill="#004987" width="3.941" height="1.772"/>
	<polygon fill="#004987" points="191.749,372.839 189.648,372.839 190.698,377.63 191.749,378.164 192.803,377.63 193.852,372.839 	
		"/>
	<rect x="200.949" y="398.564" fill="#004987" width="3.943" height="1.772"/>
	<rect x="200.949" y="392.797" fill="#004987" width="3.943" height="1.772"/>
	<rect x="200.949" y="387.478" fill="#004987" width="3.943" height="1.772"/>
	<polygon fill="#004987" points="214.092,372.839 211.989,372.839 213.041,377.63 214.092,378.164 215.144,377.63 216.196,372.839 	
		"/>
	<polygon fill="#004987" points="223.293,393.24 223.293,394.569 225.922,394.569 225.922,393.24 225.922,392.797 223.293,392.797 	
		"/>
	<rect x="223.292" y="387.478" fill="#004987" width="2.629" height="1.772"/>
	<rect x="248.263" y="351.995" fill="#004987" width="5.696" height="0.889"/>
	<rect x="248.263" y="357.759" fill="#004987" width="5.696" height="0.889"/>
	<rect x="248.263" y="346.23" fill="#004987" width="5.696" height="0.889"/>
	<rect x="248.263" y="340.464" fill="#004987" width="5.696" height="0.892"/>
	<rect x="248.263" y="334.7" fill="#004987" width="5.696" height="0.885"/>
	<rect x="248.263" y="328.933" fill="#004987" width="5.696" height="0.884"/>
	<rect x="237.312" y="334.7" fill="#004987" width="8.76" height="23.948"/>
	<rect x="229.426" y="351.995" fill="#004987" width="5.694" height="0.889"/>
	<rect x="229.426" y="357.759" fill="#004987" width="5.694" height="0.889"/>
	<rect x="229.426" y="346.23" fill="#004987" width="5.694" height="0.889"/>
	<rect x="229.426" y="340.464" fill="#004987" width="5.694" height="0.892"/>
	<rect x="229.426" y="334.7" fill="#004987" width="5.694" height="0.885"/>
	<rect x="229.426" y="328.933" fill="#004987" width="5.694" height="0.884"/>
	<rect x="207.083" y="361.753" fill="#004987" width="14.018" height="2.661"/>
	<rect x="209.712" y="337.361" fill="#004987" width="8.763" height="23.063"/>
	<polygon fill="#004987" points="184.74,361.753 184.74,364.414 198.758,364.414 198.758,361.753 191.75,361.753 	"/>
	<polygon fill="#004987" points="196.131,360.424 196.131,337.361 191.749,337.361 187.369,337.361 187.369,360.424 
		191.749,360.424 	"/>
	<rect x="162.398" y="361.753" fill="#004987" width="14.018" height="2.661"/>
	<rect x="165.027" y="337.361" fill="#004987" width="8.76" height="23.063"/>
	<rect x="148.38" y="351.995" fill="#004987" width="5.696" height="0.889"/>
	<rect x="148.38" y="357.759" fill="#004987" width="5.696" height="0.889"/>
	<rect x="148.38" y="346.23" fill="#004987" width="5.696" height="0.889"/>
	<rect x="148.38" y="340.464" fill="#004987" width="5.696" height="0.892"/>
	<rect x="148.38" y="334.7" fill="#004987" width="5.696" height="0.885"/>
	<rect x="148.38" y="328.933" fill="#004987" width="5.696" height="0.884"/>
	<rect x="137.426" y="334.7" fill="#004987" width="8.761" height="23.948"/>
	<rect x="129.542" y="346.23" fill="#004987" width="5.696" height="0.889"/>
	<rect x="129.542" y="351.995" fill="#004987" width="5.696" height="0.889"/>
	<rect x="129.542" y="340.464" fill="#004987" width="5.696" height="0.892"/>
	<rect x="129.542" y="334.7" fill="#004987" width="5.696" height="0.885"/>
	<rect x="129.542" y="328.933" fill="#004987" width="5.696" height="0.884"/>
	<rect x="129.542" y="357.759" fill="#004987" width="5.696" height="0.889"/>
	<path fill="#004987" d="M169.188,285.911c2.659,0,4.819-2.182,4.819-4.875c0-2.696-2.16-4.879-4.819-4.879
		c-2.662,0-4.819,2.182-4.819,4.879C164.37,283.728,166.526,285.911,169.188,285.911"/>
	<path fill="#004987" d="M191.749,285.911c2.662,0,4.819-2.182,4.819-4.875c0-2.696-2.156-4.879-4.819-4.879
		s-4.819,2.182-4.819,4.879C186.93,283.728,189.086,285.911,191.749,285.911"/>
	<path fill="#004987" d="M214.311,285.911c2.661,0,4.819-2.182,4.819-4.875c0-2.696-2.158-4.879-4.819-4.879
		c-2.662,0-4.819,2.182-4.819,4.879C209.493,283.728,211.649,285.911,214.311,285.911"/>
	<path fill="#004987" d="M157.141,305.43h-0.261c-3.616-4.343-9.026-7.098-15.072-7.098c-6.047,0-11.457,2.755-15.074,7.098h-0.26
		v1.772h30.667V305.43z"/>
	<polygon fill="#004987" points="225.921,294.741 225.921,292.122 191.748,292.122 157.578,292.122 157.578,294.741 
		191.748,294.741 	"/>
	<polygon fill="#004987" points="162.399,302.324 191.748,302.324 221.101,302.324 221.101,300.105 225.922,300.105 
		225.922,297.887 157.578,297.887 157.578,300.105 162.399,300.105 	"/>
	<rect x="162.398" y="305.43" fill="#004987" width="58.703" height="1.772"/>
	<polygon fill="#004987" points="229.426,310.749 154.076,310.749 154.076,308.531 129.542,308.531 129.542,310.749 
		129.542,312.521 129.542,313.853 157.578,313.853 157.578,316.959 225.921,316.959 225.921,313.853 253.958,313.853 
		253.958,312.521 253.958,310.749 253.958,308.531 229.426,308.531 	"/>
	<path fill="#004987" d="M129.542,321.838h7.008v3.99h0.989c0.952,1.342,2.509,2.218,4.267,2.218c1.758,0,3.315-0.875,4.267-2.218
		h0.991v-3.99h7.01v-3.546h-24.533V321.838z"/>
	<path fill="#004987" d="M229.426,321.838h7.01v3.99h0.989c0.954,1.342,2.509,2.218,4.268,2.218c1.758,0,3.313-0.875,4.269-2.218
		h0.989v-3.99h7.008v-3.546h-24.533V321.838z"/>
	<path fill="#004987" d="M169.407,324.828c1.757,0,3.179,1.441,3.179,3.217c0,1.781-1.422,3.218-3.179,3.218
		c-1.755,0-3.179-1.438-3.179-3.218C166.228,326.269,167.652,324.828,169.407,324.828 M157.578,324.943h8.701
		c-0.255,0.266-0.48,0.559-0.666,0.885h-3.215v4.88h3.503c0.799,1.074,2.071,1.774,3.507,1.774c1.434,0,2.704-0.7,3.503-1.774h3.505
		v-4.88h-3.215c-0.185-0.326-0.41-0.619-0.666-0.885h12.911c1.139-2.365,3.533-3.993,6.304-3.993h-34.172V324.943z"/>
	<path fill="#004987" d="M214.092,324.828c1.755,0,3.177,1.441,3.177,3.217c0,1.781-1.422,3.218-3.177,3.218
		c-1.755,0-3.179-1.438-3.179-3.218C210.914,326.269,212.338,324.828,214.092,324.828 M198.053,324.943h12.912
		c-0.258,0.266-0.481,0.559-0.666,0.885h-3.217v4.88h3.505c0.799,1.074,2.071,1.774,3.505,1.774s2.706-0.7,3.505-1.774h3.503v-4.88
		h-3.215c-0.185-0.326-0.408-0.619-0.666-0.885h8.701v-3.993h-34.172C194.522,320.95,196.916,322.578,198.053,324.943"/>
	<path fill="#004987" d="M182.989,325.828v4.882h2.263c-0.328-0.825-0.511-1.72-0.511-2.664c0-0.773,0.125-1.518,0.35-2.218H182.989
		z"/>
	<path fill="#004987" d="M198.758,328.045c0,0.944-0.183,1.839-0.511,2.664h2.266v-4.882h-2.105
		C198.635,326.527,198.758,327.272,198.758,328.045"/>
	<path fill="#004987" d="M196.131,328.045c0-1.223-0.49-2.333-1.28-3.133l-2.622,3.413c-0.013,0.022-0.027,0.042-0.043,0.067
		l-0.015,0.017c-0.01,0.007-0.017,0.022-0.027,0.032c-0.028,0.028-0.06,0.052-0.09,0.077c-0.215,0.137-0.503,0.115-0.691-0.074
		c-0.045-0.049-0.082-0.1-0.107-0.161l-1.434-2.192l1.91,1.28l3.119-2.459c-0.794-0.805-1.891-1.3-3.102-1.3
		c-2.418,0-4.379,1.985-4.379,4.433c0,2.452,1.961,4.438,4.379,4.438C194.171,332.483,196.131,330.497,196.131,328.045"/>
	<polygon fill="#004987" points="162.399,335.585 176.417,335.585 176.417,334.256 176.417,333.367 162.399,333.367 	"/>
	<path fill="#004987" d="M191.749,335.144c-1.775,0-3.4-0.671-4.634-1.776h-2.376v2.216h7.01h7.008v-2.216h-2.373
		C195.147,334.473,193.525,335.144,191.749,335.144"/>
	<rect x="207.083" y="333.366" fill="#004987" width="14.018" height="2.218"/>
	<path fill="#004987" d="M167.243,375.737l-0.38-1.734c-5.31,1.182-9.286,5.968-9.286,11.7h1.315h0.438h0.876h0.44h0.438
		c0-4.038,2.797-7.406,6.539-8.236l-0.188-0.867L167.243,375.737z"/>
	<path fill="#004987" d="M189.382,374.807l-0.176-0.805c-4.029,0.899-7.29,3.873-8.627,7.754c-1.339-3.881-4.6-6.855-8.63-7.754
		l-0.175,0.802l-0.584,2.664c3.74,0.828,6.54,4.197,6.54,8.236h0.44h0.438h0.874h0.44h1.315h0.436h0.876h0.441h0.436
		c0-4.038,2.799-7.407,6.54-8.236h0.003l-0.586-2.664L189.382,374.807z"/>
	<path fill="#004987" d="M211.549,374.003c-4.031,0.899-7.291,3.871-8.628,7.752c-1.337-3.881-4.599-6.854-8.628-7.752l-0.176,0.8
		l-0.583,2.666c3.74,0.828,6.54,4.196,6.54,8.234h0.438h0.438h0.876h0.438h1.314h0.44h0.876h0.438h0.438
		c0-4.038,2.801-7.406,6.54-8.234l-0.583-2.666L211.549,374.003z"/>
	<path fill="#004987" d="M216.634,374.003l-0.175,0.8l-0.584,2.666c3.74,0.828,6.542,4.196,6.542,8.234h0.436h0.44h0.876h0.438
		h1.315C225.922,379.973,221.946,375.185,216.634,374.003"/>
	<path fill="#004987" d="M178.17,396.566c-0.122,0-0.22,0.102-0.22,0.224c0,0.122,0.098,0.219,0.22,0.219s0.218-0.097,0.218-0.219
		C178.388,396.668,178.291,396.566,178.17,396.566"/>
	<path fill="#004987" d="M179.482,397.01c0-0.122-0.097-0.221-0.218-0.221c-0.12,0-0.221,0.099-0.221,0.221
		c0,0.122,0.102,0.224,0.221,0.224C179.386,397.234,179.482,397.132,179.482,397.01"/>
	<path fill="#004987" d="M180.797,396.125c0-0.122-0.097-0.224-0.218-0.224c-0.122,0-0.218,0.102-0.218,0.224
		c0,0.122,0.097,0.221,0.218,0.221C180.7,396.346,180.797,396.247,180.797,396.125"/>
	<g>
		<rect x="176.417" y="256.627" fill="#004987" width="3.082" height="3.12"/>
		<rect x="180.361" y="256.627" fill="#004987" width="3.08" height="3.12"/>
		<rect x="188.243" y="256.627" fill="#004987" width="3.084" height="3.12"/>
		<rect x="192.173" y="256.627" fill="#004987" width="3.082" height="3.12"/>
		<rect x="184.301" y="256.627" fill="#004987" width="3.082" height="3.12"/>
		<rect x="172.472" y="256.627" fill="#004987" width="3.082" height="3.12"/>
		<rect x="160.645" y="256.627" fill="#004987" width="3.082" height="3.12"/>
		<rect x="164.586" y="256.627" fill="#004987" width="3.082" height="3.12"/>
		<rect x="168.529" y="256.627" fill="#004987" width="3.082" height="3.12"/>
		<rect x="219.771" y="256.627" fill="#004987" width="3.084" height="3.12"/>
		<rect x="215.828" y="256.627" fill="#004987" width="3.082" height="3.12"/>
		<rect x="211.887" y="256.627" fill="#004987" width="3.082" height="3.12"/>
		<path fill="#004987" d="M287.8,309.528l-0.058-120.742H95.759v122.624c0,0.86,0.103,2.207,0.103,2.207
			c1.75,52.105,43.985,93.819,95.886,93.819c52.569,0,95.343-42.783,96.051-95.827v-1.433
			C287.773,309.489,287.8,310.176,287.8,309.528z M157.578,261.519l2.19-2.218v-7.094h0.877v3.55h31.103h31.106v-3.55h0.876v7.094
			l2.191,2.218v2.661h-68.343V261.519z M102.383,330.71h23.214v3.106h-22.485C102.849,332.79,102.613,331.752,102.383,330.71z
			 M256.587,375.499h-28.915h-0.028v2.666h26.641c-2.866,2.713-5.924,5.217-9.116,7.538h-0.07h-6.241h-11.214v2.676h11.214h2.271
			h0.156c-6.254,4.074-13.014,7.424-20.185,9.876v-0.099v-0.206v-12.248c0-3.923-3.135-7.098-7.008-7.098
			c-3.871,0-7.01,3.175-7.01,7.098v12.248v3.759v0.119c-2.736,0.465-5.511,0.818-8.324,1.036v-0.134v-2.584v-14.444
			c0-3.923-3.137-7.098-7.01-7.098c-3.871,0-7.008,3.175-7.008,7.098v14.444v2.584v0.134c-2.811-0.221-5.588-0.561-8.323-1.029
			v-0.126v-4.475v-11.532c0-3.923-3.139-7.098-7.01-7.098s-7.008,3.175-7.008,7.098v11.532v0.922v0.115
			c-7.186-2.462-13.955-5.819-20.217-9.906h0.132c0.008,0.003,0.017,0.01,0.025,0.013h13.488v-2.676h-10.771h-6.689h-0.038
			c-3.192-2.321-6.251-4.825-9.115-7.538h26.612v-2.221v-0.445h-28.913v-7.095h27.596h1.317h1.752v1.332h68.343v-1.332h1.75h28.915
			V375.499z M280.385,333.816h-22.485v-3.106h23.216C280.886,331.752,280.647,332.79,280.385,333.816z M282.825,320.062h-26.238
			v1.776h26.041c-0.125,1.043-0.263,2.077-0.424,3.106h-24.303h-1.314v4.874v0.892v0.882v2.224v1.329v25.28h1.314v-25.28h22.12
			c-0.408,1.496-0.854,2.973-1.332,4.434h-5.015v12.284c-1.091,2.208-2.253,4.372-3.507,6.474v-18.758h-7.884v20.847h6.58
			c-1.45,2.29-2.997,4.507-4.634,6.651h-7.642v-2.661h-28.915v0.964v0.368v0.44h-3.503h-66.152h-0.438h-1.752v-0.44v-0.777v-0.556
			h-28.913v2.661h-7.644c-1.638-2.144-3.185-4.362-4.637-6.651h6.585v-20.847h-7.886v18.762c-1.255-2.102-2.416-4.266-3.505-6.469
			v-12.293h-5.02c-0.478-1.461-0.922-2.937-1.33-4.434h22.12v25.28h1.317v-25.28v-1.329v-2.224v-0.882v-0.892v-4.874h-1.317h-24.303
			c-0.16-1.029-0.298-2.063-0.425-3.106h26.045v-1.776h-26.241c-0.12-1.177-0.236-2.355-0.313-3.546h2.01h24.544v-7.983h-3.507
			v-3.992h2.349c1.111-1.329,2.383-2.521,3.786-3.542v-6.216h7.02c1.542,0.909,3.332,1.426,5.245,1.426
			c1.911,0,3.703-0.517,5.245-1.426h7.023h2.627v-2.661h-6.572v-1.334h-16.649l0.002,1.334h-6.57v-4.435v-0.447h2.634
			c0.311-11.307,12.448-20.398,27.373-20.398c0.1,0,0.198,0.003,0.296,0.003c0.12-0.003,0.241-0.003,0.361-0.003h34.17h34.173
			c0.118,0,0.24,0,0.36,0.003c0.1,0,0.198-0.003,0.296-0.003c14.927,0,27.063,9.091,27.373,20.398h2.636v4.882h-6.574v-1.334
			h-16.645v1.334h-6.57v2.661h9.649c1.542,0.909,3.335,1.426,5.247,1.426c1.91,0,3.703-0.517,5.243-1.426h7.023v6.216
			c1.399,1.021,2.672,2.213,3.785,3.542h2.348v3.992h-3.505v7.983h24.666h1.885C283.063,317.707,282.944,318.885,282.825,320.062z"
			/>
		<rect x="207.942" y="256.627" fill="#004987" width="3.084" height="3.12"/>
		<rect x="196.114" y="256.627" fill="#004987" width="3.082" height="3.12"/>
		<rect x="200.058" y="256.627" fill="#004987" width="3.084" height="3.12"/>
		<rect x="204.001" y="256.627" fill="#004987" width="3.082" height="3.12"/>
	</g>
	<path fill="#004987" d="M257.025,306.314v-0.885h-0.261c-3.615-4.343-9.026-7.096-15.07-7.096c-6.047,0-11.459,2.753-15.074,7.096
		h-0.261v1.774h30.667V306.314z"/>
</g>
</svg>
